<svg xmlns="http://www.w3.org/2000/svg" width="430" height="430" style="width:100%;height:100%;transform:translate3d(0,0,0);content-visibility:visible" viewBox="0 0 430 430"><defs><clipPath id="c"><path d="M0 0h430v430H0z"/></clipPath><clipPath id="g"><path d="M0 0h430v430H0z"/></clipPath><clipPath id="f"><path d="M0 0h430v430H0z"/></clipPath><clipPath id="e"><path d="M0 0h430v430H0z"/></clipPath><clipPath id="d"><path d="M0 0h430v430H0z"/></clipPath><filter id="a" width="100%" height="100%" x="0%" y="0%" filterUnits="objectBoundingBox"><feComponentTransfer in="SourceGraphic"><feFuncA tableValues="1.0 0.0" type="table"/></feComponentTransfer></filter><path id="b" style="display:none"/><mask id="h" mask-type="alpha"><g filter="url(#a)"><path fill="#fff" d="M0 0h430v430H0z" opacity="0"/><use xmlns:ns1="http://www.w3.org/1999/xlink" ns1:href="#b"/></g></mask></defs><g clip-path="url(#c)"><g clip-path="url(#d)" style="display:block"><g style="display:block"><path fill="#EBE6EE" d="M402.02 300.25v-162a2.355 2.355 0 0 0-.71-1.68 2.32 2.32 0 0 0-1.67-.69H152.65a2.315 2.315 0 0 0-1.67.7 2.333 2.333 0 0 0-.7 1.67v162a2.37 2.37 0 0 0 2.37 2.37h247a2.37 2.37 0 0 0 2.37-2.37z" class="secondary"/><path fill="#EBE6EE" fill-opacity=".5" d="M43.735 39.5V29.37l-.02-.05-66.44-58.39a83.25 83.25 0 0 0-15.14-10.43l-5.87 5.81 87.47 73.19z" class="secondary" style="mix-blend-mode:multiply" transform="translate(358.65 256.75)"/><path fill="#EBE6EE" fill-opacity=".5" d="m-43.725 39.495 87.45-73.18-5.86-5.81a82.863 82.863 0 0 0-15.14 10.43l-66.45 58.39v10.17z" class="secondary" style="mix-blend-mode:multiply" transform="translate(194.15 258.75)"/><path fill="#4AB3FC" d="m296.715 240.3 104.6-105a2.325 2.325 0 0 0-1.67-.67h-246.99a2.296 2.296 0 0 0-1.67.7l86.61 87.09.14.14 17.64 17.74a29.214 29.214 0 0 0 31.858 6.343 29.214 29.214 0 0 0 9.482-6.343z" class="tertiary"/><path fill="#4AB3FC" fill-opacity=".5" d="m36.365 30.809 17.65 17.74a28.998 28.998 0 0 0 12.57 7.41 28.918 28.918 0 0 1-4 .87 29.188 29.188 0 0 1-24.78-8.28l-17.64-17.74-86.75-87.23a2.293 2.293 0 0 1 1.67-.7h13.86c.18.2.39.42.67.7l86.75 87.23z" class="tertiary" style="mix-blend-mode:multiply" transform="translate(217.9 192)"/></g><path fill="none" stroke="#393346" stroke-linecap="round" stroke-linejoin="round" stroke-width="2" d="M-32.31-21.5h-13.904m13.904 11.284h-13.904M-32.269.932h-13.904m13.904 11.284h-13.904m13.849 11.149h-13.904" class="quaternary" style="display:block" transform="matrix(3.7 0 0 3.7 215 215)"/><g fill="none" stroke="#121330" stroke-linecap="round" stroke-linejoin="round" stroke-width="7" style="display:block"><path d="m230.078 216.634-79.806 70.14m251.822-.305-78.667-69.18m-173.155-81.202 105.005 105.174c11.427 11.45 29.983 11.45 41.41.002l105.407-105.519" class="primary"/><path d="M150 135.406V302.42h252.172V135.426L150 135.406z" class="primary"/></g></g><g clip-path="url(#e)" style="display:none"><g style="display:none"><path class="secondary"/><path class="secondary" style="mix-blend-mode:multiply"/><path class="secondary" style="mix-blend-mode:multiply"/><path class="tertiary"/><path class="tertiary" style="mix-blend-mode:multiply"/></g><path fill="none" class="quaternary" style="display:none"/><g fill="none" style="display:none"><path class="primary"/><path class="primary"/><path class="primary"/></g></g><g clip-path="url(#f)" style="display:none"><path class="secondary" style="display:none"/><path fill="none" class="primary" style="display:none"/><path fill="none" class="quaternary" style="display:none"/><path fill="none" class="primary" style="display:none"/><path fill="none" class="primary" style="display:none"/><path fill="none" class="primary" style="display:none"/><path fill="none" class="primary" style="display:none"/><path fill="none" class="primary" style="display:none"/><path fill="none" class="primary" style="display:none"/><g style="display:none"><path class="secondary"/><path class="secondary" style="mix-blend-mode:multiply"/><path class="secondary" style="mix-blend-mode:multiply"/><path class="tertiary"/><path class="tertiary" style="mix-blend-mode:multiply"/></g><path fill="none" class="primary" style="display:none"/><path fill="none" class="primary" style="display:none"/><g fill="none" style="display:none"><path class="primary"/><path class="primary"/></g></g><g clip-path="url(#g)" style="display:none"><path fill="none" class="primary" style="display:none"/><path class="secondary" style="display:none"/><g style="display:none"><path class="secondary"/><path class="secondary" style="mix-blend-mode:multiply"/><path fill="none" class="primary"/></g><path class="secondary" style="display:none"/><g mask="url(#h)" style="display:none"><path class="secondary"/><path class="secondary" style="mix-blend-mode:multiply"/></g><path fill="none" class="primary" style="display:none"/><g style="display:none"><path class="secondary"/><path class="secondary" style="mix-blend-mode:multiply"/></g><g style="display:none"><path class="tertiary"/><path class="tertiary" style="mix-blend-mode:multiply"/></g><path fill="none" class="quaternary" style="display:none"/><path fill="none" class="primary" style="display:none"/></g></g></svg>